<?xml version="1.0" encoding="utf-8"?>
<!-- Generator: Adobe Illustrator 24.1.3, SVG Export Plug-In . SVG Version: 6.00 Build 0)  -->
<svg version="1.1" id="Layer_1" xmlns="http://www.w3.org/2000/svg" xmlns:xlink="http://www.w3.org/1999/xlink" x="0px" y="0px"
	 viewBox="0 0 2458 512" style="enable-background:new 0 0 2458 512;" xml:space="preserve">
<style type="text/css">
	.st0{fill:#6222E0;}
	.st1{fill:#4EE3F0;}
</style>
<desc>Created with Sketch.</desc>
<g>
	<g>
		<g>
			<path class="st0" d="M732.1,255.4c19.3,2.2,35.8,11.1,49.6,26.7c13.8,15.6,20.6,35.8,20.6,60.7c0,31.2-10.1,56.1-30.4,74.7
				c-20.2,18.6-49.5,27.9-87.7,27.9H502.5V72.1h177.7c33.8,0,60.7,9.2,80.8,27.6c20.1,18.4,30.1,42.8,30.1,73.3
				c0,21.9-6,40.1-18.1,54.6c-12.1,14.5-25.7,23-40.9,25.6V255.4z M562.1,233.7h111.4c17.8,0,32.2-5.3,43.2-15.9
				c11-10.6,16.4-24.4,16.4-41.5c0-15.6-5.5-28.3-16.4-38.2c-11-9.8-25.2-14.8-42.6-14.8h-112V233.7z M678,394.2
				c19.7,0,35.1-5.2,46.2-15.6c11.2-10.4,16.7-24.1,16.7-41.2c0-16.7-5.7-30.2-17-40.4c-11.3-10.2-26.1-15.3-44.3-15.3H562.1v112.5
				H678z"/>
			<path class="st0" d="M1088.3,203.4c28.4,26.9,42.6,61.6,42.6,103.9s-14.3,77.1-42.9,104.2c-28.6,27.1-63.5,40.7-104.7,40.7
				c-41.6,0-76.8-13.6-105.6-40.7s-43.2-61.8-43.2-104.2s14.4-77,43.2-103.9s64-40.4,105.6-40.4S1059.9,176.4,1088.3,203.4z
				 M1047.4,375.5c18.2-17.6,27.3-40.4,27.3-68.3s-9.1-50.6-27.3-68.2c-18.2-17.6-39.6-26.5-64.1-26.5c-25.3,0-46.9,8.8-64.9,26.5
				c-18,17.6-27,40.4-27,68.2s9,50.6,27,68.3c18,17.6,39.6,26.5,64.9,26.5C1007.8,402,1029.2,393.1,1047.4,375.5z"/>
			<path class="st0" d="M1411.5,203.4c28.4,26.9,42.6,61.6,42.6,103.9s-14.3,77.1-42.9,104.2c-28.6,27.1-63.5,40.7-104.7,40.7
				c-41.6,0-76.8-13.6-105.6-40.7c-28.8-27.1-43.2-61.8-43.2-104.2s14.4-77,43.2-103.9c28.8-26.9,64-40.4,105.6-40.4
				C1348.1,163,1383.1,176.4,1411.5,203.4z M1370.5,375.5c18.2-17.6,27.3-40.4,27.3-68.3s-9.1-50.6-27.3-68.2
				c-18.2-17.6-39.6-26.5-64.1-26.5c-25.3,0-46.9,8.8-64.9,26.5c-18,17.6-27,40.4-27,68.2s9,50.6,27,68.3
				c18,17.6,39.6,26.5,64.9,26.5C1331,402,1352.3,393.1,1370.5,375.5z"/>
			<path class="st0" d="M1723.8,445.4L1619,327.9l-56.3,60.7v56.8h-57.9v-429h57.9v294.2l135.4-141.5h68l-108.6,117.6l139.3,158.8
				H1723.8z"/>
			<path class="st0" d="M1889.2,60.4c7.1,7.1,10.6,15.6,10.6,25.6c0,10.4-3.4,18.9-10.3,25.6c-6.9,6.7-15.7,10-26.5,10
				s-19.7-3.3-26.7-10c-7.1-6.7-10.6-15.2-10.6-25.6c0-10,3.5-18.6,10.6-25.6c7.1-7.1,16-10.6,26.7-10.6
				C1873.4,49.9,1882.2,53.4,1889.2,60.4z M1834.1,445.4V169.1h57.9v276.3H1834.1z"/>
			<path class="st0" d="M2230.2,445.4h-57.9V217h-132v228.4h-57.9V217h-45.1v-47.9h45.1v-57.9c0-30.8,9.4-55.3,28.1-73.3
				s43.7-27,74.9-27c18.6,0,35.3,3.9,50.1,11.7l-13.4,46.8c-11.1-4.5-22.1-6.7-32.9-6.7c-15.2,0-27.2,4.3-35.9,12.8
				c-8.7,8.5-13.1,20.4-13.1,35.7v57.9h190V445.4z M2174.5,111.7c-7.1-6.7-10.6-15.2-10.6-25.6c0-10,3.5-18.6,10.6-25.6
				s16-10.6,26.7-10.6c10.4,0,19.1,3.5,26.2,10.6c7.1,7.1,10.6,15.6,10.6,25.6c0,10.4-3.4,18.9-10.3,25.6c-6.9,6.7-15.7,10-26.5,10
				C2190.4,121.7,2181.5,118.4,2174.5,111.7z"/>
		</g>
	</g>
	<g>
		<path class="st1" d="M205.3,11.4H20v310.5c0-98.7,80-178.7,178.7-178.7c43.6,0,83.6,15.6,114.6,41.6c12-17.7,17.2-35.6,17.2-58
			C330.6,63,274.5,11.4,205.3,11.4z"/>
		<path class="st0" d="M334.7,205.9l-132.4,156c-2.6,3.1-6.3,5-10.3,5.2c-0.4,0-0.7,0-1.1,0c-3.6,0-7.1-1.3-9.9-3.7l-74.5-65.1
			c-6.2-5.4-6.9-14.9-1.4-21.2c5.4-6.2,14.9-6.9,21.2-1.4l63.1,55.1l124-146.1c-31-26-71-41.6-114.6-41.6
			C100,143.1,20,223.1,20,321.9c0,49.4,0,178.7,0,178.7s129.4,0,178.7,0c98.7,0,178.7-80,178.7-178.7
			C377.5,277.6,361.4,237.1,334.7,205.9z"/>
	</g>
</g>
</svg>
