<?xml version="1.0" encoding="utf-8"?>
<!-- Generator: Adobe Illustrator 24.1.3, SVG Export Plug-In . SVG Version: 6.00 Build 0)  -->
<svg version="1.1" id="Layer_1" xmlns="http://www.w3.org/2000/svg" xmlns:xlink="http://www.w3.org/1999/xlink" x="0px" y="0px"
	 viewBox="0 0 512 512" style="enable-background:new 0 0 512 512;" xml:space="preserve">
<style type="text/css">
	.st0{fill:#4EE3F0;}
	.st1{fill:#6222E0;}
</style>
<desc>Created with Sketch.</desc>
<g>
	<path class="st0" d="M262.7,5.5H72.9v318c0-101.1,82-183.1,183.1-183.1c44.7,0,85.6,16,117.4,42.6c12.3-18.1,17.6-36.5,17.6-59.4
		C391,58.3,333.6,5.5,262.7,5.5z"/>
	<path class="st1" d="M395.3,204.7L259.7,364.4c-2.7,3.1-6.5,5.1-10.6,5.4c-0.4,0-0.8,0-1.1,0c-3.7,0-7.3-1.3-10.1-3.8l-76.3-66.7
		c-6.4-5.6-7-15.3-1.5-21.7c5.6-6.4,15.3-7,21.7-1.5l64.6,56.5l127-149.7c-31.8-26.6-72.7-42.6-117.4-42.6
		c-101.1,0-183.1,82-183.1,183.1c0,50.6,0,183.1,0,183.1s132.5,0,183.1,0c101.1,0,183.1-82,183.1-183.1
		C439.1,278.1,422.6,236.7,395.3,204.7z"/>
</g>
</svg>
